<svg width="500" height="200" xmlns="http://www.w3.org/2000/svg" xmlns:svg="http://www.w3.org/2000/svg">
 <metadata id="metadata5695">image/svg+xmlGreen girls hatGreen girls hat dress cloths women lady</metadata>
 <g>
  <title>Layer 1</title>
  <g id="layer1" stroke="null">
   <path id="path126" d="m50.465257,73.862459c-3.37942,-28.557137 21.652043,-55.492365 55.921698,-60.175964c34.269667,-4.683582 64.786312,14.688626 68.182707,43.245792c3.379416,28.557154 -21.652043,55.510602 -55.921698,60.175964c-34.269667,4.683599 -64.786309,-14.688626 -68.182707,-43.245792" stroke-miterlimit="4" stroke-width="0.9" fill-rule="nonzero" fill="#434c9e" stroke="null"/>
   <path id="path170" d="m220.522942,59.738801c11.581707,36.229495 -23.010616,80.678066 -79.136095,101.307752c-56.12547,20.647911 -110.994304,9.640549 -122.559045,-26.570738c-11.581715,-36.229499 24.555965,-82.318237 80.664472,-102.947928c56.125478,-20.647906 109.482897,-8.000387 121.030667,28.210913" stroke-miterlimit="4" stroke-width="0.9" fill-rule="nonzero" fill="#434c9e" stroke="null"/>
   <path id="path172" d="m160.525559,42.243666c7.489047,21.923575 -10.223157,49.04104 -39.568035,60.576882c-29.327916,11.535868 -59.182253,3.134563 -66.671316,-18.789029c-7.47208,-21.923596 10.240151,-49.041048 39.568039,-60.576903c29.344894,-11.535855 59.199228,-3.134534 66.671312,18.78905" stroke-miterlimit="4" stroke-width="0.9" fill-rule="nonzero" fill="#ffff99" stroke="null"/>
   <path id="path174" d="m178.288718,53.579043c-1.935951,-12.738634 -21.040697,-27.40904 -21.040697,-27.40904c42.064408,3.225673 54.087665,25.787114 54.087665,25.787114c22.53509,56.440018 -52.576254,93.526064 -52.576254,93.526064c-93.163227,45.141085 -127.704596,-1.621942 -127.704596,-1.621942c-21.040681,-37.086046 13.51767,-72.550133 13.51767,-72.550133c-7.52302,91.904122 85.640192,56.53114 85.640192,56.53114c0,0 57.076487,-14.61572 48.076021,-74.263203" stroke-miterlimit="4" stroke-width="0.9" fill-rule="nonzero" fill="#ffff99" stroke="null"/>
   <path id="path176" d="m102.464122,114.02837c0,5.813506 -4.398339,10.533533 -9.815596,10.533533c-5.417245,0 -9.815584,-4.720027 -9.815584,-10.533533c0,-5.813472 4.398339,-10.515296 9.815584,-10.515296c5.417257,0 9.815596,4.701824 9.815596,10.515296" stroke-miterlimit="4" stroke-width="0.9" fill-rule="nonzero" fill="#ffff99" stroke="null"/>
   <path id="path178" d="m134.016665,123.705377c0,5.81348 -4.398339,10.533537 -9.815596,10.533537c-5.417249,0 -9.815584,-4.720057 -9.815584,-10.533537c0,-5.813476 4.398335,-10.515296 9.815584,-10.515296c5.417257,0 9.815596,4.70182 9.815596,10.515296" stroke-miterlimit="4" stroke-width="0.9" fill-rule="nonzero" fill="#ffff99" stroke="null"/>
   <path id="path180" d="m152.034572,97.91828c0,5.813493 -4.38136,10.533524 -9.8156,10.533524c-5.417257,0 -9.798614,-4.720031 -9.798614,-10.533524c0,-5.813489 4.381356,-10.533533 9.798614,-10.533533c5.43424,0 9.8156,4.720044 9.8156,10.533533" stroke-miterlimit="4" stroke-width="0.9" fill-rule="nonzero" fill="#ffff99" stroke="null"/>
   <path id="path182" d="m182.092686,88.24129c0,5.813472 -4.398339,10.533516 -9.815584,10.533516c-5.417277,0 -9.815596,-4.720044 -9.815596,-10.533516c0,-5.813493 4.398319,-10.533537 9.815596,-10.533537c5.417245,0 9.815584,4.720044 9.815584,10.533537" stroke-miterlimit="4" stroke-width="0.9" fill-rule="nonzero" fill="#ffff99" stroke="null"/>
   <path id="path184" d="m170.069441,56.002855c0,5.813493 -4.398339,10.515313 -9.815596,10.515313c-5.417261,0 -9.815584,-4.70182 -9.815584,-10.515313c0,-5.813489 4.398323,-10.533533 9.815584,-10.533533c5.417257,0 9.815596,4.720044 9.815596,10.533533" stroke-miterlimit="4" stroke-width="0.9" fill-rule="nonzero" fill="#ffff99" stroke="null"/>
   <path id="path186" d="m70.911583,121.299802c0,5.813489 -4.398339,10.515296 -9.815604,10.515296c-5.417257,0 -9.81558,-4.701807 -9.81558,-10.515296c0,-5.831726 4.398323,-10.53352 9.81558,-10.53352c5.417265,0 9.815604,4.701794 9.815604,10.53352" stroke-miterlimit="4" stroke-width="0.9" fill-rule="nonzero" fill="#ffff99" stroke="null"/>
   <path id="path188" d="m67.905759,88.24129c0,5.813472 -4.398323,10.533516 -9.815596,10.533516c-5.417245,0 -9.815584,-4.720044 -9.815584,-10.533516c0,-5.813493 4.398339,-10.533537 9.815584,-10.533537c5.417273,0 9.815596,4.720044 9.815596,10.533537" stroke-miterlimit="4" stroke-width="0.9" fill-rule="nonzero" fill="#ffff99" stroke="null"/>
  </g>
  <text fill="#434c93" stroke-width="0" x="220.734306" y="171.365097" id="svg_1" font-size="24" font-family="serif" text-anchor="middle" xml:space="preserve"/>
  <text fill="#434c9e" stroke-width="0" x="240.917959" y="296.819288" id="svg_3" font-size="24" font-family="Sans-serif" text-anchor="middle" xml:space="preserve" transform="matrix(2.964451033946605,0,0,2.6268220099096595,-379.92987807432905,-653.31547599472) ">Marple</text>
 </g>
</svg>
